# xmcd
#
# Track frame offsets: 
#        150
#        11224
#        24021
#        39011
#        52295
#        70170
#        92241
#        111014
#        127911
#        130883
#        149010
#        165539
#        176946
#
# Disc length: 2680 seconds
#
# Revision: 3
# Processed by: cddbd v1.5.2PL0 Copyright (c) Steve Scherf et al.
# Submitted via: ExactAudioCopy v0.95b4
#
DISCID=b20a760d
DTITLE=Fred Eaglesmith - Lipstick Lies and Gasoline
DYEAR=1900
DGENRE=Country
TTITLE0=Seven Shells
TTITLE1=105
TTITLE2=Thinking
TTITLE3=Bell
TTITLE4=Drinking Too Much
TTITLE5=Pontiac
TTITLE6=Spookin' The Horses
TTITLE7=Time To Get A Gun
TTITLE8=Bell (Reprise)
TTITLE9=Alcohol and Pills
TTITLE10=Angel Of The Lord
TTITLE11=Seven Angels (Crash)
TTITLE12=Water In The Fuel
EXTD=
EXTT0=
EXTT1=
EXTT2=
EXTT3=
EXTT4=
EXTT5=
EXTT6=
EXTT7=
EXTT8=
EXTT9=
EXTT10=
EXTT11=
EXTT12=
PLAYORDER=
